<?xml version="1.0" encoding="UTF-8" standalone="no"?>
<svg
   xmlns:dc="http://purl.org/dc/elements/1.1/"
   xmlns:cc="http://creativecommons.org/ns#"
   xmlns:rdf="http://www.w3.org/1999/02/22-rdf-syntax-ns#"
   xmlns:svg="http://www.w3.org/2000/svg"
   xmlns="http://www.w3.org/2000/svg"
   xmlns:sodipodi="http://sodipodi.sourceforge.net/DTD/sodipodi-0.dtd"
   xmlns:inkscape="http://www.inkscape.org/namespaces/inkscape"
   height="50pt"
   viewBox="-66 0 50 50.000098"
   width="50pt"
   version="1.1"
   id="svg6"
   sodipodi:docname="gps.svg"
   inkscape:version="0.92.4 (5da689c313, 2019-01-14)"
   inkscape:export-filename="C:\Users\Damian\Desktop\JS\React Native\WeatherApp\assets\icons\gps.png"
   inkscape:export-xdpi="96"
   inkscape:export-ydpi="96">
  <metadata
     id="metadata12">
    <rdf:RDF>
      <cc:Work
         rdf:about="">
        <dc:format>image/svg+xml</dc:format>
        <dc:type
           rdf:resource="http://purl.org/dc/dcmitype/StillImage" />
        <dc:title></dc:title>
      </cc:Work>
    </rdf:RDF>
  </metadata>
  <defs
     id="defs10" />
  <sodipodi:namedview
     pagecolor="#ffffff"
     bordercolor="#666666"
     borderopacity="1"
     objecttolerance="10"
     gridtolerance="10"
     guidetolerance="10"
     inkscape:pageopacity="0"
     inkscape:pageshadow="2"
     inkscape:window-width="1920"
     inkscape:window-height="1017"
     id="namedview8"
     showgrid="false"
     inkscape:zoom="7.4086899"
     inkscape:cx="23.140096"
     inkscape:cy="33.30866"
     inkscape:window-x="-8"
     inkscape:window-y="-8"
     inkscape:window-maximized="1"
     inkscape:current-layer="svg6" />
  <g
     id="g818"
     transform="matrix(0.09771078,0,0,0.09771078,63.260452,81.957067)"
     style="fill:#ffffff">
    <path
       inkscape:connector-curvature="0"
       style="fill:#ffffff;fill-opacity:1"
       id="path2"
       d="m -1059.5182,-837.66095 -0.8007,-0.004 c -104.9688,9e-5 -190.3672,85.40634 -190.3672,190.38681 0,57.55469 29.4179,102.44531 62.1953,147.14844 l 127.9179,174.46484 c 0,0 120.90629,-164.14844 128.46879,-174.46094 32.77734,-44.70312 62.19531,-89.59375 62.19531,-147.14844 0,-104.72265 -84.98047,-189.97265 -189.6094,-190.38671 z m 103.22659,319.79687 c -7.57031,10.32813 -87.00389,119.12109 -103.89839,141.99609 l -104.1133,-141.99609 c -30.8516,-42.07812 -56.3867,-80.85937 -56.3867,-129.41406 0,-88.19141 71.5351,-159.98828 159.625,-160.39062 h 0.7695 c 88.44139,0 160.39452,71.95312 160.39452,160.39453 0,48.55468 -25.53907,87.33203 -56.39063,129.41015 z m 0,0" />
    <path
       inkscape:connector-curvature="0"
       style="fill:#ffffff;fill-opacity:1"
       id="path4"
       d="m -1059.1502,-766.34692 c -60.6055,0 -109.9063,49.30469 -109.9063,109.90625 0,60.60547 49.3008,109.91015 109.9063,109.91015 60.60157,0 109.90625,-49.30468 109.90625,-109.91015 0,-60.60156 -49.30468,-109.90625 -109.90625,-109.90625 z m 0,189.82031 c -44.0664,0 -79.9141,-35.84765 -79.9141,-79.91406 0,-44.0625 35.8477,-79.91016 79.9141,-79.91016 44.0625,0 79.91407,35.84766 79.91407,79.91016 0,44.06641 -35.85157,79.91406 -79.91407,79.91406 z m 0,0" />
  </g>
</svg>
