<?xml version="1.0" encoding="UTF-8" standalone="no"?>
<svg
   xmlns:dc="http://purl.org/dc/elements/1.1/"
   xmlns:cc="http://creativecommons.org/ns#"
   xmlns:rdf="http://www.w3.org/1999/02/22-rdf-syntax-ns#"
   xmlns:svg="http://www.w3.org/2000/svg"
   xmlns="http://www.w3.org/2000/svg"
   xmlns:sodipodi="http://sodipodi.sourceforge.net/DTD/sodipodi-0.dtd"
   xmlns:inkscape="http://www.inkscape.org/namespaces/inkscape"
   id="Capa_1"
   enable-background="new 0 0 512.002 512.002"
   height="50"
   viewBox="0 0 50.000195 50.000195"
   width="50"
   version="1.1"
   sodipodi:docname="humidity.svg"
   inkscape:export-filename="C:\Users\Damian\Desktop\JS\React Native\WeatherApp\assets\icons\humidity.png"
   inkscape:export-xdpi="96"
   inkscape:export-ydpi="96"
   inkscape:version="0.92.4 (5da689c313, 2019-01-14)">
  <metadata
     id="metadata21">
    <rdf:RDF>
      <cc:Work
         rdf:about="">
        <dc:format>image/svg+xml</dc:format>
        <dc:type
           rdf:resource="http://purl.org/dc/dcmitype/StillImage" />
        <dc:title></dc:title>
      </cc:Work>
    </rdf:RDF>
  </metadata>
  <defs
     id="defs19" />
  <sodipodi:namedview
     pagecolor="#ffffff"
     bordercolor="#666666"
     borderopacity="1"
     objecttolerance="10"
     gridtolerance="10"
     guidetolerance="10"
     inkscape:pageopacity="0"
     inkscape:pageshadow="2"
     inkscape:window-width="1920"
     inkscape:window-height="1017"
     id="namedview17"
     showgrid="false"
     inkscape:zoom="12.070801"
     inkscape:cx="12.435482"
     inkscape:cy="27.52019"
     inkscape:window-x="-8"
     inkscape:window-y="-8"
     inkscape:window-maximized="1"
     inkscape:current-layer="Capa_1" />
  <g
     id="g14"
     transform="matrix(0.09627263,0,0,0.09627263,0.33908349,0.37794396)">
    <g
       id="g4">
      <path
         d="m 448.851,196.432 c -37.22,-53.22 -67.24,-124.59 -87.78,-186.21 -0.02,-0.08 -0.05,-0.15 -0.07,-0.22 -20.77,62.32 -50.23,132.62 -87.87,186.46 -1.18,1.7 -2.34,3.42 -3.47,5.16 C 252.076,171.537 235.766,139.244 220.925,106.668 206.084,74.092 192.711,41.232 181.001,10.012 l -0.01,0.03 c -14.62,38.985 -31.503,79.877 -50.579,119.632 -19.076,39.755 -40.346,78.373 -63.741,112.808 -21.335,31.399 -35.67,71.128 -35.67,109.52 0,41.42 16.79,78.92 43.935,106.065 27.145,27.145 64.645,43.935 106.065,43.935 63.633,0 118.618,-39.753 140.27,-96.73 12.43,4.36 25.8,6.73 39.73,6.73 66.28,0 120,-53.72 120,-120 0,-31.57 -12.21,-67.05 -32.15,-95.57 z"
         id="path2"
         inkscape:connector-curvature="0"
         style="fill:#b3f1ff" />
    </g>
    <g
       id="g12">
      <path
         d="m 181.001,452.002 c 5.523,0 10,-4.478 10,-10 0,-5.522 -4.477,-10 -10,-10 -44.112,0 -80,-35.888 -80,-80 0,-22.228 8.811,-48.459 23.57,-70.168 3.105,-4.567 1.919,-10.787 -2.648,-13.892 -4.567,-3.106 -10.787,-1.92 -13.892,2.647 -16.925,24.896 -27.03,55.331 -27.03,81.412 0,55.142 44.86,100.001 100,100.001 z"
         id="path6"
         inkscape:connector-curvature="0" />
      <circle
         cx="74.000999"
         cy="457.00201"
         r="10"
         id="circle8" />
      <path
         d="m 181.001,0.007 c -4.391,0 -8.121,2.833 -9.465,6.771 C 136.195,100.972 98.132,178.38 58.4,236.862 34.632,271.84 21.001,313.806 21.001,352.002 c 0,25.421 6.114,50.726 17.681,73.179 2.529,4.909 8.56,6.84 13.469,4.31 4.91,-2.529 6.839,-8.56 4.31,-13.47 -10.259,-19.913 -15.46,-41.452 -15.46,-64.019 0,-34.285 12.371,-72.155 33.941,-103.899 37.155,-54.688 72.785,-125.305 106.063,-210.166 25.25,64.327 52.119,120.992 80.018,168.724 8.515,14.6 17.275,28.543 26.037,41.442 21.57,31.744 33.941,69.614 33.941,103.899 0,78.53 -64.287,140 -140,140 -23.165,0 -46.11,-5.772 -66.355,-16.692 -4.86,-2.62 -10.927,-0.807 -13.549,4.054 -2.622,4.861 -0.807,10.927 4.054,13.548 23.154,12.489 49.382,19.091 75.851,19.091 64.01,0 120.577,-37.808 145.997,-94.499 11.033,2.983 22.431,4.499 34.003,4.499 71.682,0 130,-58.317 130,-130 0,-33.021 -12.693,-70.89 -33.955,-101.302 C 425.927,146.204 395.234,81.05 370.61,7.216 370.581,7.123 370.552,7.032 370.522,6.942 369.222,2.897 365.496,0.1 361.224,0.006 356.818,-0.133 352.902,2.681 351.516,6.841 334.874,56.774 307.549,126.752 270.381,182.719 242.705,133.209 215.241,72.781 190.483,6.815 189.15,2.855 185.409,0.007 181.001,0.007 Z m 179.996,40.436 c 18.226,50.245 44.927,112.058 79.658,161.718 19.001,27.179 30.346,60.764 30.346,89.841 0,60.654 -49.346,110 -110,110 -9.15,0 -18.163,-1.124 -26.914,-3.323 4.591,-15.061 6.914,-30.716 6.914,-46.677 0,-38.195 -13.631,-80.162 -37.398,-115.139 -7.421,-10.925 -14.848,-22.636 -22.128,-34.887 34.647,-49.625 61.302,-111.321 79.522,-161.533 z"
         id="path10"
         inkscape:connector-curvature="0" />
    </g>
  </g>
</svg>
