<?xml version="1.0" encoding="UTF-8" standalone="no"?>
<!-- Generator: Adobe Illustrator 16.0.0, SVG Export Plug-In . SVG Version: 6.00 Build 0)  -->

<svg
   xmlns:dc="http://purl.org/dc/elements/1.1/"
   xmlns:cc="http://creativecommons.org/ns#"
   xmlns:rdf="http://www.w3.org/1999/02/22-rdf-syntax-ns#"
   xmlns:svg="http://www.w3.org/2000/svg"
   xmlns="http://www.w3.org/2000/svg"
   xmlns:sodipodi="http://sodipodi.sourceforge.net/DTD/sodipodi-0.dtd"
   xmlns:inkscape="http://www.inkscape.org/namespaces/inkscape"
   version="1.1"
   id="Capa_1"
   x="0px"
   y="0px"
   width="50"
   height="50"
   viewBox="0 0 49.999999 49.999999"
   xml:space="preserve"
   sodipodi:docname="search.svg"
   inkscape:version="0.92.4 (5da689c313, 2019-01-14)"><metadata
   id="metadata44"><rdf:RDF><cc:Work
       rdf:about=""><dc:format>image/svg+xml</dc:format><dc:type
         rdf:resource="http://purl.org/dc/dcmitype/StillImage" /><dc:title></dc:title></cc:Work></rdf:RDF></metadata><defs
   id="defs42" /><sodipodi:namedview
   pagecolor="#ffffff"
   bordercolor="#666666"
   borderopacity="1"
   objecttolerance="10"
   gridtolerance="10"
   guidetolerance="10"
   inkscape:pageopacity="0"
   inkscape:pageshadow="2"
   inkscape:window-width="1920"
   inkscape:window-height="1017"
   id="namedview40"
   showgrid="false"
   inkscape:zoom="8.2640241"
   inkscape:cx="40.468752"
   inkscape:cy="39.866186"
   inkscape:window-x="-8"
   inkscape:window-y="-8"
   inkscape:window-maximized="1"
   inkscape:current-layer="Capa_1" />
<g
   id="g7"
   style="fill:#ffffff"
   transform="matrix(0.0794164,0,0,0.0794164,0.72051428,0.66985738)"
   inkscape:export-xdpi="96"
   inkscape:export-ydpi="96">
	<g
   id="_x34__4_"
   style="fill:#ffffff">
		<g
   id="g4"
   style="fill:#ffffff">
			<path
   d="M 606.209,578.714 448.198,423.228 C 489.576,378.272 515,318.817 515,253.393 514.98,113.439 399.704,0 257.493,0 115.282,0 0.006,113.439 0.006,253.393 c 0,139.954 115.276,253.393 257.487,253.393 61.445,0 117.801,-21.253 162.068,-56.586 l 158.624,156.099 c 7.729,7.614 20.277,7.614 28.006,0 7.747,-7.613 7.747,-19.971 0.018,-27.585 z M 257.493,467.8 c -120.326,0 -217.869,-95.993 -217.869,-214.407 0,-118.414 97.543,-214.407 217.869,-214.407 120.327,0 217.869,95.993 217.869,214.407 0,118.414 -97.542,214.407 -217.869,214.407 z"
   id="path2"
   style="fill:#ffffff"
   inkscape:connector-curvature="0" />
		</g>
	</g>
</g>
<g
   id="g9"
   transform="translate(0,-562.01001)">
</g>
<g
   id="g11"
   transform="translate(0,-562.01001)">
</g>
<g
   id="g13"
   transform="translate(0,-562.01001)">
</g>
<g
   id="g15"
   transform="translate(0,-562.01001)">
</g>
<g
   id="g17"
   transform="translate(0,-562.01001)">
</g>
<g
   id="g19"
   transform="translate(0,-562.01001)">
</g>
<g
   id="g21"
   transform="translate(0,-562.01001)">
</g>
<g
   id="g23"
   transform="translate(0,-562.01001)">
</g>
<g
   id="g25"
   transform="translate(0,-562.01001)">
</g>
<g
   id="g27"
   transform="translate(0,-562.01001)">
</g>
<g
   id="g29"
   transform="translate(0,-562.01001)">
</g>
<g
   id="g31"
   transform="translate(0,-562.01001)">
</g>
<g
   id="g33"
   transform="translate(0,-562.01001)">
</g>
<g
   id="g35"
   transform="translate(0,-562.01001)">
</g>
<g
   id="g37"
   transform="translate(0,-562.01001)">
</g>
</svg>