<?xml version="1.0" encoding="UTF-8" standalone="no"?>
<!-- Generator: Adobe Illustrator 19.0.0, SVG Export Plug-In . SVG Version: 6.00 Build 0)  -->

<svg
   xmlns:dc="http://purl.org/dc/elements/1.1/"
   xmlns:cc="http://creativecommons.org/ns#"
   xmlns:rdf="http://www.w3.org/1999/02/22-rdf-syntax-ns#"
   xmlns:svg="http://www.w3.org/2000/svg"
   xmlns="http://www.w3.org/2000/svg"
   xmlns:sodipodi="http://sodipodi.sourceforge.net/DTD/sodipodi-0.dtd"
   xmlns:inkscape="http://www.inkscape.org/namespaces/inkscape"
   version="1.1"
   id="Capa_1"
   x="0px"
   y="0px"
   viewBox="0 0 50 50"
   xml:space="preserve"
   sodipodi:docname="wind.svg"
   width="50"
   height="50"
   inkscape:export-filename="C:\Users\Damian\Desktop\JS\React Native\WeatherApp\assets\icons\wind.png"
   inkscape:export-xdpi="96"
   inkscape:export-ydpi="96"
   inkscape:version="0.92.4 (5da689c313, 2019-01-14)"><metadata
   id="metadata61"><rdf:RDF><cc:Work
       rdf:about=""><dc:format>image/svg+xml</dc:format><dc:type
         rdf:resource="http://purl.org/dc/dcmitype/StillImage" /><dc:title></dc:title></cc:Work></rdf:RDF></metadata><defs
   id="defs59" /><sodipodi:namedview
   pagecolor="#ffffff"
   bordercolor="#666666"
   borderopacity="1"
   objecttolerance="10"
   gridtolerance="10"
   guidetolerance="10"
   inkscape:pageopacity="0"
   inkscape:pageshadow="2"
   inkscape:window-width="1920"
   inkscape:window-height="1017"
   id="namedview57"
   showgrid="false"
   inkscape:zoom="12.070801"
   inkscape:cx="41.471032"
   inkscape:cy="30.643731"
   inkscape:window-x="-8"
   inkscape:window-y="-8"
   inkscape:window-maximized="1"
   inkscape:current-layer="Capa_1" />



<g
   id="g883"
   transform="matrix(0.09686252,0,0,0.09686252,2.5910832,44.991185)"
   style="fill:#ffffff"><g
     transform="translate(0,-462)"
     id="g6"
     style="fill:#ffffff">
	<g
   id="g4"
   style="fill:#ffffff">
		<path
   inkscape:connector-curvature="0"
   id="path2"
   d="M 64,0 C 55.168,0 48,7.168 48,16 v 480 c 0,8.832 7.168,16 16,16 8.832,0 16,-7.168 16,-16 V 16 C 80,7.168 72.832,0 64,0 Z"
   style="fill:#ffffff" />
	</g>
</g><g
     transform="translate(0,-462)"
     id="g12"
     style="fill:#ffffff">
	<g
   id="g10"
   style="fill:#ffffff">
		<path
   inkscape:connector-curvature="0"
   id="path8"
   d="m 449.984,48.128 -384,-48 c -8.8,-0.96 -16.768,5.152 -17.856,13.888 -1.088,8.768 5.12,16.768 13.888,17.856 L 432,78.112 v 67.776 L 62.016,192.128 C 53.248,193.216 47.04,201.216 48.128,209.984 49.152,218.08 56.032,224 64,224 c 0.64,0 1.312,-0.032 1.984,-0.128 l 384,-48 C 457.984,174.88 464,168.064 464,160 V 64 c 0,-8.064 -6.016,-14.88 -14.016,-15.872 z"
   style="fill:#ffffff" />
	</g>
</g><g
     transform="translate(0,-462)"
     id="g18"
     style="fill:#ffffff">
	<g
   id="g16"
   style="fill:#ffffff">
		<path
   inkscape:connector-curvature="0"
   id="path14"
   d="m 192,16 c -8.832,0 -16,7.168 -16,16 v 160 c 0,8.832 7.168,16 16,16 8.832,0 16,-7.168 16,-16 V 32 c 0,-8.832 -7.168,-16 -16,-16 z"
   style="fill:#ffffff" />
	</g>
</g><g
     transform="translate(0,-462)"
     id="g24"
     style="fill:#ffffff">
	<g
   id="g22"
   style="fill:#ffffff">
		<path
   inkscape:connector-curvature="0"
   id="path20"
   d="m 320,32 c -8.832,0 -16,7.168 -16,16 v 128 c 0,8.832 7.168,16 16,16 8.832,0 16,-7.168 16,-16 V 48 c 0,-8.832 -7.168,-16 -16,-16 z"
   style="fill:#ffffff" />
	</g>
</g></g>
<g
   id="g26"
   transform="translate(0,-462)">
</g>
<g
   id="g28"
   transform="translate(0,-462)">
</g>
<g
   id="g30"
   transform="translate(0,-462)">
</g>
<g
   id="g32"
   transform="translate(0,-462)">
</g>
<g
   id="g34"
   transform="translate(0,-462)">
</g>
<g
   id="g36"
   transform="translate(0,-462)">
</g>
<g
   id="g38"
   transform="translate(0,-462)">
</g>
<g
   id="g40"
   transform="translate(0,-462)">
</g>
<g
   id="g42"
   transform="translate(0,-462)">
</g>
<g
   id="g44"
   transform="translate(0,-462)">
</g>
<g
   id="g46"
   transform="translate(0,-462)">
</g>
<g
   id="g48"
   transform="translate(0,-462)">
</g>
<g
   id="g50"
   transform="translate(0,-462)">
</g>
<g
   id="g52"
   transform="translate(0,-462)">
</g>
<g
   id="g54"
   transform="translate(0,-462)">
</g>
</svg>